<svg xmlns="http://www.w3.org/2000/svg" xmlns:xlink="http://www.w3.org/1999/xlink" viewBox="0,0,256,256" width="50px" height="50px" fill-rule="nonzero"><g fill="#ffffff" fill-rule="nonzero" stroke="none" stroke-width="1" stroke-linecap="butt" stroke-linejoin="miter" stroke-miterlimit="10" stroke-dasharray="" stroke-dashoffset="0" font-family="none" font-weight="none" font-size="none" text-anchor="none" style="mix-blend-mode: normal"><g transform="scale(5.12,5.12)"><path d="M10,3c-3.31,0 -6,2.69 -6,6v32.24023l21,6.29883l21,-6.29883v-32.24023c0,-3.31 -2.69,-6 -6,-6zM11,8h4v3h-4v7h3v3h-3v7h4v3h-4c-1.66,0 -3,-1.34 -3,-3v-17c0,-1.66 1.34,-3 3,-3zM17,8h6c1.66,0 3,1.34 3,3v7c0,1.66 -1.34,3 -3,3h-3v10h-3zM28,8h3v23h-3zM36,8h3c1.66,0 3,1.34 3,3v4h-3v-4h-3v17h3v-4h3v4c0,1.66 -1.34,3 -3,3h-3c-1.66,0 -3,-1.34 -3,-3v-17c0,-1.66 1.34,-3 3,-3zM20,11v7h3v-7zM9,34h4c0.55,0 1,0.45 1,1v1h-1v-0.75c0,-0.14 -0.11,-0.25 -0.25,-0.25h-3.5c-0.14,0 -0.25,0.11 -0.25,0.25v3.5c0,0.14 0.11,0.25 0.25,0.25h3.5c0.14,0 0.25,-0.11 0.25,-0.25v-0.75h-1v-1h2v2c0,0.55 -0.45,1 -1,1h-4c-0.55,0 -1,-0.45 -1,-1v-4c0,-0.55 0.45,-1 1,-1zM18,34h1l3,6h-1l-0.5,-1h-4l-0.5,1h-1zM23,34h1l2,4l2,-4h1v6h-1v-4l-1.5,3h-1l-1.5,-3v4h-1zM30,34h5v1h-4v1.5h2v1h-2v1.5h4v1h-5zM37,34h4c0.55,0 1,0.45 1,1v0.5h-1v-0.25c0,-0.14 -0.11,-0.25 -0.25,-0.25h-3.5c-0.14,0 -0.25,0.11 -0.25,0.25v1c0,0.14 0.11,0.25 0.25,0.25h3.75c0.55,0 1,0.45 1,1v1.5c0,0.55 -0.45,1 -1,1h-4c-0.55,0 -1,-0.45 -1,-1v-0.5h1v0.25c0,0.14 0.11,0.25 0.25,0.25h3.5c0.14,0 0.25,-0.11 0.25,-0.25v-1c0,-0.14 -0.11,-0.25 -0.25,-0.25h-3.75c-0.55,0 -1,-0.45 -1,-1v-1.5c0,-0.55 0.45,-1 1,-1zM18.5,35l-1.5,3h3z"></path></g></g></svg>